<svg xmlns="http://www.w3.org/2000/svg" viewBox="0 0 48.04 26.88"><g style="isolation:isolate"><g id="Layer_1" data-name="Layer 1"><path d="M36.7,11.69a19.33,19.33,0,0,1,2.48.91,4.7,4.7,0,0,0-2.73-3.83C36.5,9.63,36.58,10.62,36.7,11.69Z" transform="translate(0.04 -8)" style="fill:#f05623"/><path d="M24.62,11.35a25.85,25.85,0,0,1,6.54-.57c.17-.93.37-1.86.61-2.78a18.19,18.19,0,0,0-7.31,1.34C24.5,9.93,24.55,10.6,24.62,11.35Z" transform="translate(0.04 -8)" style="fill:#29b473"/><path d="M31.92,10.82a22.87,22.87,0,0,1,4,.65c-.12-1.1-.2-2.1-.25-3l-.05,0A16.22,16.22,0,0,0,32.54,8C32.29,9,32.09,9.88,31.92,10.82Z" transform="translate(0.04 -8)" style="fill:#a5cd3a"/><path d="M21.73,12.14c.71-.24,1.42-.44,2.14-.62-.06-.67-.11-1.29-.15-1.84a14.55,14.55,0,0,0-1.88,1.12C21.8,11.24,21.76,11.69,21.73,12.14Z" transform="translate(0.04 -8)" style="fill:#0880c0"/><path d="M19.49,13c.48-.21,1-.41,1.47-.59,0-.33,0-.65.07-1A11.37,11.37,0,0,0,19.49,13Z" transform="translate(0.04 -8)" style="fill:#2b388f"/><path d="M31.05,33.11H32c-.88-4.32-2.21-13-1-21.26a30,30,0,0,0-4,.16c-.77.08-1.51.18-2.23.32C25.31,17.83,26.88,26.31,31.05,33.11Z" transform="translate(0.04 -8)" style="fill:#7b9b2a"/><path d="M11.13,28.82C12.35,29.3,14,29.9,16,30.51a52.12,52.12,0,0,1-.3-14.67,27.6,27.6,0,0,0-6.11,5.23A22.45,22.45,0,0,0,11.13,28.82Z" transform="translate(0.04 -8)" style="fill:#b87eb6"/><path d="M48,23.5a15.61,15.61,0,0,0-3.24-5.72,32.39,32.39,0,0,0,1,9.47A15.72,15.72,0,0,0,48,23.5Z" transform="translate(0.04 -8)" style="fill:#ffc807"/><path d="M42.31,30.35c-4-5.35-5.6-12.49-6.27-17.83a22.49,22.49,0,0,0-4.29-.65c-1.25,8.26.11,17,1,21.2A19.77,19.77,0,0,0,42.31,30.35Z" transform="translate(0.04 -8)" style="fill:#cfdd40"/><path d="M8.83,22a17.45,17.45,0,0,0-1.1,1.54,24.11,24.11,0,0,0-2.24-2.6c-.93,2.37-1.51,6.23.66,11.53a23.81,23.81,0,0,0,2.7-4.56s.47.22,1.32.57A23.27,23.27,0,0,1,8.83,22Z" transform="translate(0.04 -8)" style="fill:#90278e"/><path d="M24,12.47c-.79.17-1.56.37-2.29.6a95.2,95.2,0,0,0,1.74,20.82,10.47,10.47,0,0,0,2.11-1.19,42.11,42.11,0,0,0,4.63.4C26.12,26.28,24.57,18,24,12.47Z" transform="translate(0.04 -8)" style="fill:#13abb6"/><path d="M4.94,20.38c-1.63-1.46-3.52-2.44-4.4-.29C-1.17,24.24,1.13,36.85,4,34.62a11.37,11.37,0,0,0,1.58-1.53C3.11,27.25,3.87,23,4.94,20.38Z" transform="translate(0.04 -8)" style="fill:#eb234a"/><path d="M20.91,13.33a24.92,24.92,0,0,0-4.41,2,51.5,51.5,0,0,0,.29,15.41c.47.14.95.28,1.45.41-.9,2.54-.62,3.45,1.2,3.54a9,9,0,0,0,3.26-.54A97.17,97.17,0,0,1,20.91,13.33Z" transform="translate(0.04 -8)" style="fill:#0880c0"/><path d="M44,17a16.89,16.89,0,0,0-7.19-4.24c.68,5.22,2.3,12.07,6.11,17.19a14.14,14.14,0,0,0,2.26-2A33,33,0,0,1,44,17Zm-1.72,3.2A1.61,1.61,0,1,1,42,18a2.09,2.09,0,0,1,.22.2.85.85,0,0,0-.79.73.88.88,0,0,0,.84.92,1.29,1.29,0,0,0,.28,0A1.43,1.43,0,0,1,42.3,20.18Z" transform="translate(0.04 -8)" style="fill:#f6921e"/><path d="M45.19,24.54a14.32,14.32,0,0,0,2.2-2.66A11.81,11.81,0,0,1,48,23.5a15.72,15.72,0,0,1-2.21,3.75A22.15,22.15,0,0,1,45.19,24.54Zm-.68.61a16.67,16.67,0,0,1-3.25,2.16,24.79,24.79,0,0,0,1.68,2.62,14.14,14.14,0,0,0,2.26-2A23.68,23.68,0,0,1,44.51,25.15ZM32.73,33.07a19.77,19.77,0,0,0,9.58-2.72,25.85,25.85,0,0,1-1.73-2.71,25.09,25.09,0,0,1-8.46,2.08C32.33,31,32.54,32.15,32.73,33.07Zm-3.44-3.24a34.46,34.46,0,0,0,1.76,3.28H32c-.19-.93-.4-2.05-.6-3.33C30.7,29.81,30,29.83,29.29,29.83Zm-6.63-.48c.27,1.8.54,3.35.76,4.54a10.47,10.47,0,0,0,2.11-1.19,42.11,42.11,0,0,0,4.63.4,35,35,0,0,1-1.7-3.27A50.63,50.63,0,0,1,22.66,29.35Zm-5.87,1.41c.47.14.95.28,1.45.41-.9,2.54-.62,3.45,1.2,3.54a9,9,0,0,0,3.26-.54c-.23-1.26-.53-3-.82-4.93q-2.58-.39-5.49-1.08C16.49,29,16.62,29.89,16.79,30.76Zm-5.66-1.94C12.35,29.3,14,29.9,16,30.51c-.16-.85-.28-1.7-.37-2.55q-2.5-.62-5.26-1.48A20.7,20.7,0,0,0,11.13,28.82ZM5.28,29.88a22.68,22.68,0,0,0,.87,2.55,23.81,23.81,0,0,0,2.7-4.56s.47.22,1.32.57a20.86,20.86,0,0,1-.68-2.23l-1-.34A15.09,15.09,0,0,1,5.28,29.88ZM0,26.09c.37,4.83,2,10,4,8.53a11.37,11.37,0,0,0,1.58-1.53,23.93,23.93,0,0,1-1-2.78C2.25,31.57,1,28.71,0,26.09Z" transform="translate(0.04 -8)" style="fill:#231f20;opacity:0.15;mix-blend-mode:multiply"/><path d="M44,17a.34.34,0,0,0,0,.1,32.1,32.1,0,0,0-6.91-2.51c-.1-.62-.2-1.24-.27-1.83A16.89,16.89,0,0,1,44,17ZM36.31,14.4c-.1-.65-.19-1.28-.27-1.88a22.49,22.49,0,0,0-4.29-.65c-.1.65-.18,1.29-.25,1.94A29.26,29.26,0,0,1,36.31,14.4ZM31,11.84a30,30,0,0,0-4,.16c-.77.08-1.51.18-2.23.32.07.62.15,1.29.25,2a28,28,0,0,1,5.79-.52C30.81,13.13,30.89,12.48,31,11.84Zm-6.77,2.61c-.1-.69-.18-1.36-.25-2-.79.17-1.56.37-2.29.6,0,.69-.06,1.39-.07,2.09A26.5,26.5,0,0,1,24.22,14.45Zm-7.95,3.07a28.9,28.9,0,0,1,4.58-2.09c0-.71,0-1.41.06-2.1a24.92,24.92,0,0,0-4.41,2C16.42,16,16.34,16.73,16.27,17.52Zm-6.7,3.55c0,.47,0,.95.09,1.45A32,32,0,0,1,15.47,18c.06-.77.13-1.48.21-2.14A27.6,27.6,0,0,0,9.57,21.07ZM8.83,22a17.45,17.45,0,0,0-1.1,1.54,24.11,24.11,0,0,0-2.24-2.6c-.14.36-.27.75-.39,1.18a18.52,18.52,0,0,1,2.63,2.48c.39-.45.8-.89,1.22-1.32C8.9,22.8,8.86,22.38,8.83,22ZM.54,20.09a5.14,5.14,0,0,0-.26.81s1.44-1.07,4.21.75a13.27,13.27,0,0,1,.45-1.27C3.31,18.92,1.42,17.94.54,20.09Z" transform="translate(0.04 -8)" style="fill:#fff;opacity:0.26;mix-blend-mode:screen"/><path d="M38.62,10.79A13.51,13.51,0,0,0,36.53,10c0-.42-.06-.83-.08-1.21A4.49,4.49,0,0,1,38.62,10.79Zm-2.86-1c0-.45-.06-.87-.09-1.27l-.05,0A16.22,16.22,0,0,0,32.54,8c-.11.42-.21.83-.31,1.25A18.31,18.31,0,0,1,35.76,9.77Zm-11.3-.43c0,.28,0,.58.06.89a25.62,25.62,0,0,1,6.94-1c.1-.42.2-.84.31-1.26A18.19,18.19,0,0,0,24.46,9.34Zm-.68,1.11c0-.27,0-.53-.06-.77a14.55,14.55,0,0,0-1.88,1.12c0,.1,0,.21,0,.31C22.49,10.86,23.14,10.64,23.78,10.45Z" transform="translate(0.04 -8)" style="fill:#fff;opacity:0.26;mix-blend-mode:screen"/></g></g></svg>
